<svg xmlns="http://www.w3.org/2000/svg" viewBox="0 0 256 256" width="50" height="50"><path d="M231.803 11.904a5.125 5.125 0 00-3.779-1.664H27.976a5.125 5.125 0 00-3.779 1.664 5.112 5.112 0 00-1.32 3.912l18.022 201.866a5.129 5.129 0 003.696 4.47l81.971 23.413c.456.128.932.195 1.403.195s.947-.067 1.403-.195l82.043-23.413a5.129 5.129 0 003.697-4.47l18.012-201.866a5.132 5.132 0 00-1.321-3.912zM61.44 148.5l35.84 9.944V56.32h20.48v133.12l-56.32-15.621zm133.396-35.86l-5.396 62.72-51.2 14.08v-23.557l34.56-9.498 1.28-19.2-35.84 6.175V56.32h61.44l-1.766 20.48H158.72v40.96z" fill="#ffdf1a" font-family="none" font-weight="none" font-size="none" text-anchor="none"/></svg>